<?xml version="1.0" standalone="no"?>
<!DOCTYPE svg PUBLIC "-//W3C//DTD SVG 20010904//EN"
 "http://www.w3.org/TR/2001/REC-SVG-20010904/DTD/svg10.dtd">
<svg version="1.0" xmlns="http://www.w3.org/2000/svg"
 width="944.000000pt" height="944.000000pt" viewBox="0 0 944.000000 944.000000"
 preserveAspectRatio="xMidYMid meet">
<metadata>
Created by potrace 1.11, written by Peter Selinger 2001-2013
</metadata>
<g transform="translate(0.000000,944.000000) scale(0.100000,-0.100000)"
fill="#000000" stroke="none">
<path d="M4700 9411 c0 -7 -95 -134 -188 -250 -15 -18 -31 -40 -36 -48 -4 -9
-16 -23 -25 -32 -9 -9 -25 -30 -36 -45 -11 -16 -29 -39 -40 -52 -11 -13 -36
-45 -55 -71 -19 -27 -37 -50 -40 -53 -3 -3 -52 -68 -110 -145 -58 -76 -113
-147 -122 -157 -10 -10 -18 -21 -18 -25 0 -5 -14 -23 -31 -40 -16 -18 -27 -33
-24 -33 4 0 0 -7 -7 -15 -27 -30 -42 -49 -227 -297 -104 -139 -195 -260 -203
-268 -7 -8 -24 -31 -38 -50 -13 -19 -29 -38 -35 -42 -6 -5 -6 -8 0 -8 6 0 6
-3 0 -8 -11 -7 -78 -92 -105 -132 -8 -12 -22 -31 -31 -41 -9 -11 -27 -35 -40
-54 -13 -19 -27 -35 -31 -35 -5 0 -8 -5 -8 -11 0 -10 -43 -71 -108 -156 -9
-12 -24 -31 -32 -43 -8 -12 -26 -37 -40 -55 -14 -18 -43 -58 -65 -90 -22 -31
-50 -70 -62 -85 -13 -15 -23 -33 -23 -39 0 -6 -4 -11 -9 -11 -5 0 -20 -17 -32
-37 -13 -21 -27 -42 -32 -48 -54 -65 -360 -526 -461 -695 -48 -80 -91 -152
-96 -160 -6 -8 -20 -34 -32 -57 -12 -24 -26 -43 -30 -43 -4 0 -8 -3 -8 -8 0
-8 -274 -470 -290 -489 -6 -7 -8 -13 -5 -13 4 0 -2 -12 -13 -27 -21 -29 -41
-64 -100 -173 -20 -36 -41 -68 -46 -72 -6 -4 -8 -8 -3 -8 4 0 -3 -17 -15 -37
-13 -21 -50 -92 -83 -158 -33 -66 -64 -123 -70 -127 -5 -4 -7 -8 -2 -8 4 0 -5
-24 -20 -52 -15 -29 -27 -55 -28 -58 0 -3 -11 -27 -23 -54 -12 -27 -22 -52
-22 -57 0 -5 -4 -9 -10 -9 -5 0 -9 -3 -8 -7 1 -5 -4 -24 -11 -43 -8 -19 -15
-37 -16 -40 -9 -26 -19 -50 -30 -75 -17 -39 -103 -297 -109 -327 -3 -13 -12
-48 -20 -78 -8 -30 -17 -68 -20 -85 -3 -16 -8 -41 -11 -55 -3 -14 -8 -41 -11
-60 -4 -19 -8 -44 -10 -55 -25 -135 -24 -631 1 -715 3 -8 7 -37 9 -65 6 -56
13 -108 21 -145 3 -14 8 -41 11 -60 3 -19 7 -42 10 -50 3 -8 8 -26 10 -40 9
-51 76 -296 86 -313 5 -10 12 -30 14 -43 4 -22 61 -171 101 -264 23 -53 147
-304 153 -310 3 -3 16 -25 29 -50 13 -25 63 -103 110 -174 47 -71 91 -136 96
-145 6 -9 12 -18 15 -21 3 -3 30 -36 60 -75 30 -38 67 -83 81 -100 195 -218
317 -336 499 -480 41 -32 77 -63 78 -67 2 -4 8 -8 13 -8 6 0 30 -15 53 -33 24
-17 52 -38 62 -44 11 -7 36 -24 57 -38 21 -14 42 -25 47 -25 4 0 10 -3 12 -8
8 -19 282 -168 409 -221 41 -18 86 -38 101 -46 14 -8 31 -15 37 -15 6 0 30 -9
54 -19 54 -25 266 -95 314 -104 10 -2 25 -7 33 -10 15 -5 166 -40 225 -52 68
-13 163 -28 190 -30 11 -1 40 -5 65 -9 25 -4 70 -9 100 -12 71 -7 552 -13 563
-7 5 3 32 6 60 8 56 3 156 14 197 21 14 2 54 9 90 15 36 5 85 15 110 20 25 6
54 12 65 15 11 2 34 6 50 10 17 3 44 10 60 15 41 12 179 52 185 54 11 2 117
37 135 45 11 4 63 25 115 45 90 36 359 162 370 174 3 3 21 14 40 24 53 28 93
51 105 60 34 25 87 57 95 57 6 0 10 3 10 8 0 4 16 16 35 26 19 11 35 23 35 28
0 4 5 8 11 8 6 0 24 10 39 23 15 12 40 31 55 42 179 128 466 403 597 570 12
17 28 37 35 45 74 93 113 144 113 151 0 4 6 14 13 21 22 22 117 166 117 178 0
5 5 10 10 10 6 0 10 4 10 10 0 5 17 38 38 72 21 35 44 78 51 96 7 17 17 32 22
32 5 0 9 5 9 11 0 6 13 39 29 73 25 54 65 141 91 201 26 59 59 148 65 177 4
18 11 39 16 48 12 22 33 92 59 195 12 50 25 97 28 105 3 8 5 18 4 22 -1 4 2
18 7 30 5 13 11 43 15 68 6 45 11 73 21 120 3 14 8 48 11 75 3 28 8 66 10 85
12 87 16 159 17 355 1 116 -1 237 -6 270 -11 85 -24 160 -27 160 -1 0 -3 11
-5 25 -5 41 -14 82 -30 145 -23 88 -23 90 -25 90 -1 0 -3 10 -6 23 -2 12 -13
50 -25 85 -12 34 -22 67 -24 72 -1 6 -5 19 -10 30 -4 11 -25 67 -47 125 -73
190 -239 542 -338 715 -12 22 -32 58 -43 80 -12 22 -23 42 -26 45 -4 3 -13 19
-21 35 -8 17 -30 54 -48 83 -18 28 -35 60 -39 70 -3 9 -12 24 -19 32 -6 8 -25
38 -40 67 -16 28 -73 124 -126 212 -54 88 -98 164 -98 169 0 6 -3 12 -7 14 -9
3 -73 106 -73 115 0 4 -6 14 -14 22 -7 9 -25 36 -38 61 -14 25 -48 81 -75 125
-27 44 -56 91 -64 105 -8 14 -17 27 -20 30 -3 3 -14 20 -24 38 -11 17 -22 32
-26 32 -4 0 -9 8 -13 18 -5 17 -26 52 -36 62 -3 3 -34 48 -70 100 -35 52 -68
97 -72 98 -4 2 -8 9 -8 16 0 7 -8 21 -17 32 -26 28 -73 92 -73 98 0 3 -7 14
-15 23 -18 22 -250 339 -273 373 -79 118 -901 1213 -914 1218 -4 2 -8 8 -8 13
0 6 -13 24 -30 42 -16 18 -30 35 -30 39 0 3 -16 26 -36 50 -50 61 -52 64 -118
153 -33 44 -62 82 -65 85 -4 3 -35 43 -71 90 -35 47 -68 90 -72 95 -5 6 -56
72 -115 148 -93 120 -133 159 -133 128z"/>
</g>
</svg>
