<?xml version="1.0" encoding="UTF-8" standalone="no"?>
<!-- Created with Inkscape (http://www.inkscape.org/) -->

<svg
   xmlns:dc="http://purl.org/dc/elements/1.1/"
   xmlns:cc="http://creativecommons.org/ns#"
   xmlns:rdf="http://www.w3.org/1999/02/22-rdf-syntax-ns#"
   xmlns:svg="http://www.w3.org/2000/svg"
   xmlns="http://www.w3.org/2000/svg"
   xmlns:sodipodi="http://sodipodi.sourceforge.net/DTD/sodipodi-0.dtd"
   xmlns:inkscape="http://www.inkscape.org/namespaces/inkscape"
   width="49.514877mm"
   height="66.731689mm"
   viewBox="0 0 49.514877 66.73169"
   version="1.1"
   id="svg8"
   sodipodi:docname="sap.svg"
   inkscape:version="0.92.2 (unknown)">
  <defs
     id="defs2">
    <inkscape:perspective
       sodipodi:type="inkscape:persp3d"
       inkscape:vp_x="0 : 148.49999 : 1"
       inkscape:vp_y="0 : 999.99996 : 0"
       inkscape:vp_z="210.00001 : 148.49999 : 1"
       inkscape:persp3d-origin="105.00001 : 98.999997 : 1"
       id="perspective831" />
  </defs>
  <sodipodi:namedview
     id="base"
     pagecolor="#ffffff"
     bordercolor="#666666"
     borderopacity="1.0"
     inkscape:pageopacity="0.0"
     inkscape:pageshadow="2"
     inkscape:zoom="1.979899"
     inkscape:cx="17.791248"
     inkscape:cy="99.785624"
     inkscape:document-units="mm"
     inkscape:current-layer="text864"
     showgrid="false"
     inkscape:window-width="1920"
     inkscape:window-height="1053"
     inkscape:window-x="0"
     inkscape:window-y="0"
     inkscape:window-maximized="1"
     fit-margin-top="0"
     fit-margin-left="0"
     fit-margin-right="0"
     fit-margin-bottom="0" />
  <metadata
     id="metadata5">
    <rdf:RDF>
      <cc:Work
         rdf:about="">
        <dc:format>image/svg+xml</dc:format>
        <dc:type
           rdf:resource="http://purl.org/dc/dcmitype/StillImage" />
        <dc:title></dc:title>
      </cc:Work>
    </rdf:RDF>
  </metadata>
  <g
     inkscape:label="Layer 1"
     inkscape:groupmode="layer"
     id="layer1"
     transform="translate(-49.143531,-54.162518)">
    <path
       style="opacity:1;fill:#c3504d;fill-opacity:1;stroke:none;stroke-width:2.28699994;stroke-miterlimit:4;stroke-dasharray:none;stroke-opacity:1"
       d="m 98.658408,96.136772 c 0,13.673158 -11.084283,24.757438 -24.757439,24.757438 -13.673155,0 -24.757438,-11.08428 -24.757438,-24.757438 0,-6.836578 5.310831,-14.329207 8.290721,-19.490528 2.97989,-5.161321 16.466717,-22.483726 16.466717,-22.483726 0,0 13.486828,17.322405 16.466718,22.483726 2.97989,5.16132 8.290721,12.65395 8.290721,19.490528 z"
       id="path829"
       inkscape:connector-curvature="0"
       sodipodi:nodetypes="ssszcss" />
    <flowRoot
       xml:space="preserve"
       id="flowRoot854"
       style="font-style:normal;font-weight:normal;font-size:40px;line-height:1.25;font-family:sans-serif;letter-spacing:0px;word-spacing:0px;fill:#000000;fill-opacity:1;stroke:none"
       transform="scale(0.26458333)"><flowRegion
         id="flowRegion856"><rect
           id="rect858"
           width="161.78572"
           height="43.57143"
           x="156.07143"
           y="297.16254" /></flowRegion><flowPara
         id="flowPara860">СА</flowPara></flowRoot>    <g
       aria-label="SAP"
       style="font-style:normal;font-variant:normal;font-weight:normal;font-stretch:normal;font-size:16.68141365px;line-height:1.25;font-family:'Big John';-inkscape-font-specification:'Big John, Normal';font-variant-ligatures:normal;font-variant-caps:normal;font-variant-numeric:normal;font-feature-settings:normal;text-align:start;letter-spacing:0px;word-spacing:0px;writing-mode:lr-tb;text-anchor:start;fill:#ffffff;fill-opacity:1;stroke:none;stroke-width:0.41703534"
       id="text864"
       transform="translate(0.52916667)">
      <path
         d="m 65.85034,93.611248 c 0,-2.135221 -1.718186,-3.836725 -3.853407,-3.836725 -2.135221,0 -3.836725,1.718186 -3.836725,3.853407 0,2.135221 1.701504,3.836725 3.836725,3.836725 0.517124,0 0.950841,0.433717 0.950841,0.950841 0,0.517123 -0.433717,0.934159 -0.950841,0.934159 -0.517124,0 -0.934159,-0.417036 -0.934159,-0.950841 h -2.919248 c 0,2.201946 1.718186,3.886766 3.853407,3.886766 2.135221,0 3.853407,-1.7015 3.853407,-3.836722 0,-0.917477 -0.300266,-1.751548 -0.834071,-2.418805 -0.70062,-0.900796 -1.801593,-1.484645 -3.019336,-1.484645 -0.517124,0 -0.934159,-0.417036 -0.934159,-0.93416 0,-0.517123 0.417035,-0.95084 0.934159,-0.95084 0.517124,0 0.950841,0.433717 0.950841,0.95084 z"
         style="font-style:normal;font-variant:normal;font-weight:normal;font-stretch:normal;font-size:16.68141365px;font-family:'Big John';-inkscape-font-specification:'Big John, Normal';font-variant-ligatures:normal;font-variant-caps:normal;font-variant-numeric:normal;font-feature-settings:normal;text-align:start;writing-mode:lr-tb;text-anchor:start;fill:#ffffff;fill-opacity:1;stroke-width:0.41703534"
         id="path927"
         inkscape:connector-curvature="0" />
      <path
         d="m 70.052202,102.28558 0.750663,-1.63478 h 5.121194 l 0.767345,1.63478 h 3.286239 L 74.089104,89.774523 h -1.484646 l -5.838495,12.511057 z m 3.319601,-7.156323 1.267787,2.752433 h -2.552256 z"
         style="font-style:normal;font-variant:normal;font-weight:normal;font-stretch:normal;font-size:16.68141365px;font-family:'Big John';-inkscape-font-specification:'Big John, Normal';font-variant-ligatures:normal;font-variant-caps:normal;font-variant-numeric:normal;font-feature-settings:normal;text-align:start;writing-mode:lr-tb;text-anchor:start;fill:#ffffff;fill-opacity:1;stroke-width:0.41703534"
         id="path929"
         inkscape:connector-curvature="0" />
      <path
         d="m 84.656756,92.543638 h 2.035132 c 1.000885,0 1.801593,0.800708 1.801593,1.801593 0,1.000884 -0.800708,1.784911 -1.801593,1.784911 h -2.035132 z m -3.286239,9.741942 h 3.286239 v -3.319598 h 2.051813 c 2.485531,0 4.537345,-2.068495 4.537345,-4.587389 0,-2.535574 -2.068495,-4.60407 -4.60407,-4.60407 h -5.271327 z"
         style="font-style:normal;font-variant:normal;font-weight:normal;font-stretch:normal;font-size:16.68141365px;font-family:'Big John';-inkscape-font-specification:'Big John, Normal';font-variant-ligatures:normal;font-variant-caps:normal;font-variant-numeric:normal;font-feature-settings:normal;text-align:start;writing-mode:lr-tb;text-anchor:start;fill:#ffffff;fill-opacity:1;stroke-width:0.41703534"
         id="path931"
         inkscape:connector-curvature="0" />
    </g>
  </g>
</svg>
